<?xml version="1.0" encoding="UTF-8"?>
<!-- Generated by Pixelmator Pro 3.8 -->
<svg width="1024" height="1024" viewBox="0 0 1024 1024" xmlns="http://www.w3.org/2000/svg">
    <linearGradient id="linearGradient1" x1="217.238167" y1="729.26228" x2="334.511025" y2="729.26228" gradientUnits="userSpaceOnUse">
        <stop offset="0" stop-color="#2550c8" stop-opacity="1"/>
        <stop offset="1" stop-color="#152f77" stop-opacity="1"/>
    </linearGradient>
    <path id="path1" fill="url(#linearGradient1)" fill-rule="evenodd" stroke="none" d="M 245.868073 885.390686 C 240.715637 885.681458 234.805511 885.493103 232.734467 884.972107 C 230.663422 884.45105 227.268204 883.157166 225.189514 882.09668 C 223.11084 881.036255 219.587936 878.191772 217.36084 875.775635 C 215.133743 873.359497 243.942657 856.442383 246 856.174377 C 247.375 855.9953 251.492111 854.058594 255.149139 851.870605 C 258.806152 849.682617 264.243134 845.554138 267.231262 842.696228 C 270.219421 839.838318 274.706757 834.799988 277.203094 831.5 C 279.699432 828.200012 283.712463 821.674988 286.120941 817 C 288.529419 812.325012 291.26358 806.639587 292.196869 804.365784 C 293.130157 802.091919 294.860107 796.691956 296.041199 792.365784 C 297.222321 788.039612 298.991699 780.224976 299.973206 775 C 300.954681 769.775024 302.374725 761 303.128845 755.5 C 304.092651 748.470947 304.499939 734.112305 304.499786 707.16925 C 304.499634 672.117432 303.51004 658.275024 303.861328 658 C 304.212585 657.724976 304.574158 656.150024 304.664764 654.5 C 304.755402 652.849976 308.933929 639.349976 313.950378 624.5 C 318.966827 609.650024 324.247589 594.648071 325.685364 591.162354 C 327.332764 587.168457 332.676453 573.500977 334 573 C 335.155151 572.562744 333.992188 621.778931 333.982666 667.809021 C 333.972748 715.780151 333.543182 755.554688 332.976257 761 C 332.432251 766.224976 331.26886 773.650024 330.390961 777.5 C 329.513092 781.349976 328.224335 786.75 327.52713 789.5 C 326.829895 792.25 322.44812 812.196838 320.481506 816 C 306.82431 842.411011 287.568146 868.605896 261.509705 882.924316 C 256.883759 885.466125 251.020508 885.099915 245.868073 885.390686 Z"/>
    <linearGradient id="linearGradient2" x1="291.198982" y1="769.932753" x2="733.379875" y2="268.42659" gradientUnits="userSpaceOnUse">
        <stop offset="0" stop-color="#2550c8" stop-opacity="1"/>
        <stop offset="1" stop-color="#f1bb5f" stop-opacity="1"/>
    </linearGradient>
    <path id="path2" fill="url(#linearGradient2)" fill-rule="evenodd" stroke="none" d="M 306.64856 861.265869 C 305.718964 861.944641 298.330231 865.833313 290.229187 869.907349 C 282.128143 873.981445 273.475006 878.314148 271 879.535583 C 268.524994 880.757019 263.125 882.68335 259 883.816345 C 254.875 884.949341 249.024994 886.096008 246 886.364502 C 242.975006 886.632935 238.925003 886.506775 237 886.084106 C 235.074997 885.661438 231.525497 884.704773 229.112228 883.958252 C 226.607605 883.183411 222.523483 880.589294 219.596146 877.913879 C 216.775558 875.33606 213.403351 871.095459 212.102325 868.490479 C 210.22673 864.734924 209.736847 862.151123 209.736847 856.014221 C 209.736847 850.428711 210.495361 845.80072 212.461975 839.387207 C 213.9608 834.499268 216.963867 825.325012 219.135468 819 C 221.307068 812.674988 224.146072 804.125 225.444366 800 C 226.742661 795.875 231.610748 781.025024 236.26236 767 C 240.913971 752.974976 246.833466 734.75 249.416794 726.5 C 252.000122 718.25 254.497116 710.599976 254.965668 709.5 C 255.434219 708.400024 257.695709 701.549561 259.991211 694.276855 C 262.286713 687.00415 265.987 675.529175 268.214081 668.776855 C 270.441162 662.024597 273.098297 653.575012 274.118896 650 C 275.139465 646.424988 276.426147 642.599976 276.97821 641.5 C 277.530243 640.400024 280.207428 632.75 282.92746 624.5 C 285.647522 616.25 289.708649 604.549988 291.95224 598.5 C 294.195831 592.450012 297.599396 583.342285 299.515747 578.260742 C 303 569.021423 303 569.021423 303.048553 481.760681 C 303.075256 433.767334 303.480072 390.224976 303.94812 385 C 304.416199 379.775024 305.69223 370.775024 306.783752 365 C 307.875305 359.224976 310.007233 350.450012 311.521362 345.5 C 313.035522 340.549988 314.865448 335.150024 315.587891 333.5 C 316.310364 331.849976 317.751617 328.25 318.79068 325.5 C 319.829742 322.75 323.279694 316 326.457214 310.5 C 329.634705 305 334.764801 296.900024 337.857391 292.5 C 340.949951 288.099976 350.684692 277.286316 359.490143 268.469604 C 372.103149 255.840393 377.940002 250.824524 387 244.828979 C 393.325012 240.643372 400.75 235.958069 403.5 234.417175 C 406.25 232.876282 410.299988 230.79541 412.5 229.793091 C 414.700012 228.79071 417.850006 227.249878 419.5 226.369019 C 421.149994 225.48822 424.299988 224.133484 426.5 223.358643 C 428.700012 222.58374 431.850006 221.32428 433.5 220.559814 C 435.149994 219.795349 438.975006 218.51593 442 217.716614 C 445.024994 216.917297 449.75 215.544006 452.5 214.664917 C 455.25 213.785767 462.766388 212.151489 469.203064 211.033203 C 476.743408 209.723206 485.342133 209 493.377533 209 C 502.477234 209 508.370148 209.57251 515.1745 211.117615 C 520.940247 212.42688 527.744629 214.899414 533 217.595032 C 538.234436 220.279907 543.884644 224.227112 547.707092 227.869385 C 551.120972 231.122314 555.733398 236.644958 557.956909 240.141907 C 560.180481 243.638855 563.174072 250.242371 564.609314 254.816345 C 567.049561 262.592651 567.18634 264.053528 566.716675 277.316345 C 566.297913 289.142639 565.806458 292.580322 563.759827 298 C 562.409851 301.575012 559.579041 307.424988 557.469238 311 C 555.359436 314.575012 551.128296 320.155334 548.06665 323.400757 C 545.005005 326.64624 539.994568 330.935608 536.932373 332.932739 C 533.870178 334.92981 528.920166 337.770081 525.932373 339.244385 C 522.94458 340.718689 518.97406 342.614014 517.109009 343.456177 C 515.243896 344.29834 509.618927 345.696838 504.608978 346.563965 C 499.59903 347.431091 491.899994 349.299316 487.5 350.715515 C 483.100006 352.131775 477.024994 354.645874 474 356.30249 C 470.975006 357.959045 466.25 361.101257 463.5 363.285217 C 460.75 365.469177 457.013733 368.885925 455.197205 370.877991 C 453.380676 372.870117 450.200989 376.974976 448.131226 380 C 446.061462 383.025024 442.913544 389.099976 441.135834 393.5 C 439.358154 397.900024 437.205261 405.775024 436.351654 411 C 435.185272 418.139404 434.886658 425.966614 435.149811 442.5 C 435.5 464.5 435.5 464.5 438.630981 464.365479 C 440.353027 464.291504 444.853027 462.513855 448.630981 460.4151 C 452.408936 458.316406 458.649994 454.355286 462.5 451.612732 C 466.350006 448.870178 473.157349 443.584229 477.627441 439.866211 C 482.097534 436.148193 490.038605 428.469788 495.274261 422.803101 C 500.509888 417.136414 508.552551 408.0047 513.14679 402.510437 C 517.741089 397.016113 525.01123 388.466125 529.302734 383.510437 C 533.594177 378.554688 542.958069 367.65979 550.111328 359.299622 C 557.264648 350.939392 570.403381 335.580505 579.308655 325.168823 C 588.213867 314.75708 601.510254 299.322266 608.856079 290.869202 C 616.201904 282.416138 625.556885 271.526367 629.644958 266.669678 C 637.077759 257.839355 637.077759 257.839355 632.788879 254.436401 C 630.429993 252.564758 625.125 248.428284 621 245.244141 C 616.875 242.060059 610.125 236.950684 606 233.890076 C 601.875 230.829407 594.062866 225.061707 588.639648 221.072998 C 583.072021 216.977966 579.15686 213.443115 579.646606 212.95343 C 580.123596 212.47644 587.710754 210.222412 596.506958 207.94458 C 605.303101 205.666748 617.224976 202.539063 623 200.994141 C 628.775024 199.44928 637.775024 196.988037 643 195.524658 C 648.224976 194.061279 656.662476 191.769592 661.75 190.431946 C 666.837524 189.09436 675.612488 186.867493 681.25 185.483276 C 686.887512 184.099121 692.400024 182.552979 693.5 182.047424 C 694.599976 181.54187 699.325012 180.224487 704 179.119934 C 708.674988 178.015381 716.325012 176.191345 721 175.066467 C 725.674988 173.941589 731.75 172.346497 734.5 171.521729 C 737.25 170.69696 743.212708 169.118042 747.750427 168.013062 C 752.288147 166.90802 761.288147 164.635254 767.750427 162.962463 C 774.212708 161.289673 784 158.785645 789.5 157.397888 C 795 156.010132 803.040894 154.037659 807.368591 153.014587 C 815.237183 151.15448 815.237183 151.15448 814.580872 155.827209 C 814.21991 158.397278 813.258423 163.650024 812.444214 167.5 C 811.630066 171.349976 809.889038 180.125 808.575317 187 C 807.261597 193.875 805.056274 205.575012 803.674622 213 C 802.292969 220.424988 800.214233 231.450012 799.055298 237.5 C 797.896362 243.549988 796.032959 253.224976 794.91449 259 C 793.796021 264.775024 791.977478 274.450012 790.873291 280.5 C 789.769043 286.549988 787.808289 297.125 786.515991 304 C 785.223694 310.875 782.776428 323.812134 781.077576 332.749207 C 779.378723 341.686279 776.852051 354.961243 775.462769 362.249207 C 774.073486 369.53717 772.028687 380.674988 770.918701 387 C 769.808777 393.325012 768.312439 400.03894 767.593567 401.9198 C 766.286438 405.339661 766.286438 405.339661 760.541199 398.253235 C 757.381287 394.355713 749.167236 384.266785 742.287781 375.833435 C 735.408325 367.400024 728.238342 358.79364 726.354553 356.708069 C 722.929382 352.916077 722.929382 352.916077 718.111938 358.208069 C 715.462341 361.118591 711.032715 366.200012 708.268311 369.5 C 705.503906 372.799988 698.410767 381.125 692.505737 388 C 686.600769 394.875 677.851196 405 673.062378 410.5 C 668.27356 416 659.560059 425.750549 653.699036 432.167908 C 647.838074 438.585266 638.032288 449.047729 631.908386 455.417908 L 620.773987 467 C 692 467 692 467 692 470.853088 C 692 472.97229 690.603333 480.059814 688.896362 486.603088 C 687.189331 493.146362 684.537842 502.382263 683.004028 507.127319 C 681.470276 511.872314 678.368164 519.535461 676.110535 524.156555 C 673.852905 528.777649 670.4552 535.020386 668.560059 538.029297 C 666.664917 541.038208 663.632446 545.525024 661.821228 548 C 660.01001 550.474976 655.596802 555.588989 652.014038 559.36438 C 648.431335 563.139832 642.815796 568.314819 639.535095 570.86438 C 636.254395 573.414001 631.410767 576.903748 628.771545 578.619385 C 626.132263 580.335083 621.166443 583.089233 617.73645 584.739868 C 614.306396 586.390381 608.125 588.888916 604 590.291992 C 599.875 591.695068 594.173401 593.550781 591.329834 594.415771 C 588.486206 595.280701 582.699402 596.503052 578.470276 597.13208 C 574.241089 597.761108 562.842651 598.598206 553.140442 598.992371 C 543.438171 599.386536 515.025024 599.777588 490 599.861328 C 458.855591 599.965515 443.621674 600.369629 441.716095 601.142151 C 440.184967 601.762817 438.047455 603.395508 436.966095 604.770264 C 435.097229 607.146118 435 608.983032 435 641.913879 C 435 669.896301 434.618591 679.932556 433.016571 694.107239 C 431.893646 704.042603 429.744263 716.611877 428.062378 723.078247 C 426.428467 729.360229 423.3349 739.224976 421.187775 745 C 419.04068 750.775024 415.588623 758.875 413.516571 763 C 411.444489 767.125 407.019531 774.775024 403.683289 780 C 400.347046 785.224976 394.612885 793.099976 390.940704 797.5 C 387.268524 801.900024 379.592102 810.007935 373.881989 815.517578 C 368.171906 821.027222 360.736694 827.552246 357.359314 830.017578 C 353.981964 832.48291 348.680176 836.299988 345.577576 838.5 C 342.475006 840.700012 338.263306 843.502991 336.218262 844.728821 C 334.173218 845.954712 330.024994 848.342407 327 850.034912 C 323.975006 851.727295 319.700012 854.17395 317.5 855.471863 C 315.299988 856.769775 306.64856 861.265869 306.64856 861.265869 Z M 313.643829 824.058472 C 320.221008 820.11853 325.348969 815.952515 332.146118 810.394409 C 338.943268 804.836365 349.310486 795.273499 355.184387 789.143555 C 361.89035 782.145386 368.899292 773.440491 374.020905 765.749146 C 378.50708 759.012085 384.157257 749.38855 386.576843 744.363525 C 388.99646 739.338379 392.304321 731.463379 393.927673 726.863525 C 395.551025 722.26355 397.771393 713.775024 398.861786 708 C 399.952179 702.224976 401.338409 694.349976 401.942291 690.5 C 402.567596 686.513306 403.170746 665.419983 403.343445 641.5 C 403.571899 609.857056 403.972473 598.593994 404.967804 595.82605 C 405.694397 593.805298 407.915131 590.000366 409.90274 587.370605 C 411.89032 584.740784 415.410797 581.144348 417.725952 579.37854 C 420.041138 577.612671 424.465057 575.221436 427.556915 574.064575 C 430.648743 572.907776 436.400787 571.509155 440.339203 570.956482 C 444.353821 570.393127 471.664886 569.909668 502.5 569.856018 C 532.75 569.803406 560.650024 569.375122 564.5 568.904297 C 568.349976 568.43335 574.875 567.36554 579 566.53125 C 583.125 565.69696 589.824463 563.654907 593.887634 561.993286 C 597.950867 560.331787 604.925903 556.843628 609.387634 554.241882 C 614.795898 551.088257 620.685669 546.342896 627.057007 540.005737 C 632.313354 534.777588 638.469482 527.738525 640.737366 524.363403 C 643.005188 520.98822 646.410889 515.138184 648.305542 511.363342 C 650.200256 507.588501 652.067322 503.037476 652.454651 501.25 C 653.134338 498.113403 653.042725 497.994202 649.829468 497.834045 C 647.99823 497.742737 617.346436 497.630249 581.714294 497.584045 C 525.272949 497.510803 516.807617 497.306824 515.989014 496 C 515.257935 494.832825 515.876038 494.12439 518.774719 492.807251 C 520.823608 491.876282 526.775024 489.216431 532 486.896484 C 537.224976 484.576538 545.549988 480.424744 550.5 477.670288 C 555.450012 474.915771 563.099976 470.239014 567.5 467.277466 C 571.900024 464.315918 578.200012 459.936584 581.5 457.545593 C 584.799988 455.154602 592.450012 448.944214 598.5 443.74469 C 604.549988 438.545166 614.517822 429.163025 620.650696 422.895508 C 626.783508 416.627991 637.773438 404.75 645.072693 396.5 C 652.371948 388.25 661.138611 378.349976 664.554199 374.5 C 667.969788 370.650024 674.079834 363.717224 678.132141 359.093811 C 682.184448 354.470459 694.051514 340.745422 704.503296 328.593811 C 714.955139 316.4422 724.060791 306.5 724.738159 306.5 C 725.415527 306.5 727.805725 308.75 730.049744 311.5 C 732.293762 314.25 734.998779 317.625 736.060913 319 C 737.123047 320.375 740.568542 324.621826 743.71759 328.437378 L 749.443176 335.374756 L 750.73645 329.437378 C 751.447754 326.171814 752.931641 318.099976 754.034058 311.5 C 755.136414 304.900024 756.722778 296.575012 757.559326 293 C 758.395813 289.424988 759.963806 281.437561 761.04364 275.250183 C 762.123535 269.062805 764.091675 258.037781 765.417358 250.750183 C 766.743042 243.462585 769.239319 230.299988 770.964661 221.5 C 772.689941 212.700012 774.487366 203.474976 774.958923 201 C 775.592957 197.672119 775.472717 196.141846 774.497314 195.124878 C 773.378662 193.958618 772.215576 193.982361 766.839172 195.280884 C 763.352661 196.122986 755.325012 198.175659 749 199.842407 C 742.674988 201.509094 732.325012 204.296631 726 206.036865 C 719.674988 207.777039 709.325012 210.544189 703 212.186035 C 696.674988 213.827881 687.224976 216.282104 682 217.639893 C 676.775024 218.997742 669.799988 220.775757 666.5 221.591064 C 663.200012 222.406433 657.404236 224.012512 653.620544 225.160095 C 646.741089 227.246582 646.741089 227.246582 649.920227 229.73468 C 651.668823 231.103149 655.439575 233.816711 658.299744 235.764893 C 661.159851 237.713013 665.504944 240.700378 667.955444 242.403503 C 670.405945 244.106567 673.188416 246.097595 674.138733 246.827942 C 675.08905 247.55835 677.113892 249.189453 678.638428 250.452759 C 681.174683 252.554382 681.28656 252.92395 679.955078 254.800964 C 679.154785 255.929199 672.054565 264.282532 664.176758 273.363953 C 656.29895 282.445313 645.183228 295.322021 639.475098 301.978882 C 633.766968 308.635681 623.426697 320.793945 616.496704 328.997192 C 609.566711 337.200439 597.598694 351.338806 589.901123 360.415771 C 582.203552 369.492798 569.199829 384.832214 561.003967 394.503418 C 552.808105 404.174622 542.22052 416.680237 537.476074 422.293701 C 532.731567 427.907166 524.108948 437.35376 518.314697 443.286133 C 512.520386 449.218445 503.216705 457.842834 497.639801 462.451416 C 492.062927 467.059998 484.575012 472.794861 481 475.195618 C 477.424988 477.596313 471.125 481.634399 467 484.169006 C 462.875 486.703674 455.674988 490.720642 451 493.095642 C 446.325012 495.470581 439.799988 498.497559 436.5 499.822144 C 433.200012 501.14679 428.700012 503.005798 426.5 503.953308 C 424.299988 504.900818 420.35434 506.464233 417.731903 507.427612 C 415.109436 508.390991 408.13443 511.663025 402.231903 514.698792 C 396.329346 517.734497 387.899994 522.568726 383.5 525.441406 C 379.100006 528.314087 372.799988 532.889648 369.5 535.609375 C 366.200012 538.329102 361.145325 542.744873 358.267395 545.422302 C 355.389465 548.099731 350.084198 554.013672 346.477905 558.564331 C 342.871613 563.115112 337.935394 569.687256 335.508545 573.169189 C 333.081665 576.651123 329.697144 582.424988 327.987305 586 C 326.277496 589.575012 321.963837 601.049988 318.401367 611.5 C 314.838898 621.950012 309.661407 637.924988 306.895844 647 C 304.13028 656.075012 299.423767 671.263 296.436951 680.751099 C 293.450104 690.239136 288.469543 705.989136 285.369049 715.751099 C 282.268524 725.513 277.609558 740.025024 275.015747 748 C 272.421967 755.974976 268.596985 767.900024 266.515839 774.5 C 264.434692 781.099976 261.443695 790.549988 259.869202 795.5 C 258.294708 800.450012 255.406128 809.450012 253.45015 815.5 C 251.494171 821.549988 248.318054 832.066772 246.39212 838.870605 C 244.466202 845.674438 243.027588 852.424438 243.195221 853.870605 C 243.44603 856.034424 243.942657 856.442383 246 856.174377 C 247.375 855.9953 255.486755 853.828857 260 852 C 278.68576 844.428345 295.217346 835.096619 313.643829 824.058472 Z M 403.827759 480.119324 C 404.621246 415.732361 405.068604 406.139648 406.248352 401.5 C 407.087494 398.200012 408.694977 392.455933 409.820618 388.735413 C 410.946228 385.014893 413.115723 379.389893 414.641754 376.235413 C 416.167755 373.080933 419.010162 368.077209 420.95816 365.116089 C 422.906158 362.154907 425.466064 358.329956 426.64682 356.616089 C 427.827576 354.902222 430.311371 351.924988 432.166321 350 C 434.021271 348.075012 437.3302 344.917542 439.51947 342.983459 C 441.708771 341.049377 445.75 337.864624 448.5 335.90625 C 451.25 333.947876 455.975006 330.997925 459 329.35083 C 462.024994 327.703674 467.424988 325.171997 471 323.724792 C 474.575012 322.277649 480.875 320.223938 485 319.161133 C 489.125 318.098267 496.100006 316.448975 500.5 315.495972 C 504.899994 314.54303 511.159973 312.423523 514.411011 310.78595 C 517.662109 309.148438 522.722412 305.538452 525.65625 302.763794 C 528.590027 299.989136 532.126587 295.396667 533.515259 292.55835 C 534.903931 289.719971 536.474304 284.72998 537.004944 281.469482 C 537.617126 277.708313 537.623962 273.39386 537.023682 269.666504 C 536.503357 266.435364 535.083984 261.739197 533.869507 259.230469 C 532.65509 256.721802 529.931458 252.990295 527.816956 250.938293 C 525.702454 248.88623 522.066162 246.313538 519.736206 245.22113 C 517.406311 244.128662 512.651184 242.507019 509.16922 241.617432 C 505.687317 240.727844 500.287323 240.00238 497.16922 240.00531 C 494.051147 240.00824 486.155762 240.912781 479.623932 242.015381 C 473.092072 243.117981 463.192078 245.426453 457.623932 247.145264 C 452.055756 248.864075 445.25 251.218079 442.5 252.376404 C 439.75 253.534729 432.549988 256.963623 426.5 259.996094 C 420.450012 263.028564 411 268.527405 405.5 272.21582 C 400 275.904175 391.543152 282.352783 386.707001 286.546021 C 381.870819 290.739258 375.000122 297.585144 371.438751 301.759033 C 367.87735 305.932983 363.28421 311.843079 361.23175 314.892639 C 359.179291 317.9422 356.278595 322.47644 354.785736 324.968689 C 353.292908 327.460876 351.364502 331.075012 350.500366 333 C 349.636261 334.924988 348.108551 338.299988 347.105438 340.5 C 346.102356 342.700012 344.056915 348.048218 342.560028 352.384949 C 341.063141 356.721619 338.92099 364.821594 337.799652 370.384949 C 336.678314 375.948242 335.391479 382.525024 334.940033 385 C 334.488586 387.474976 334.092407 419.065125 334.059601 455.200317 C 334.003754 516.763611 334.110199 520.963074 335.75 521.892517 C 336.954132 522.575012 338.039307 522.512573 339.228973 521.6922 C 340.179901 521.036499 343.779907 517.985352 347.228973 514.911987 C 350.67804 511.838562 356.649994 507.052246 360.5 504.275696 C 364.350006 501.499146 371.061188 497.087402 375.413757 494.471802 C 379.766327 491.856262 387.940063 487.556946 393.577637 484.917786 Z"/>
</svg>
